<svg xmlns="http://www.w3.org/2000/svg" xmlns:xlink="http://www.w3.org/1999/xlink" width="200" zoomAndPan="magnify" viewBox="0 0 150 44.999999" height="60" preserveAspectRatio="xMidYMid meet" version="1.0"><defs><g/></defs><g fill="#000000" fill-opacity="1"><g transform="translate(3.68864, 31.061812)"><g><path d="M 15.375 -2.65625 L 15.375 0 L 0.984375 0 L 0.984375 -2.09375 L 10.921875 -14.21875 L 1.15625 -14.21875 L 1.15625 -16.875 L 15.0625 -16.875 L 15.0625 -14.78125 L 5.140625 -2.65625 Z M 15.375 -2.65625 "/></g></g></g><g fill="#000000" fill-opacity="1"><g transform="translate(19.668885, 31.061812)"><g><path d="M 14.078125 -6.359375 C 14.078125 -6.148438 14.0625 -5.851562 14.03125 -5.46875 L 3.9375 -5.46875 C 4.101562 -4.519531 4.5625 -3.769531 5.3125 -3.21875 C 6.0625 -2.664062 6.988281 -2.390625 8.09375 -2.390625 C 9.507812 -2.390625 10.675781 -2.851562 11.59375 -3.78125 L 13.21875 -1.921875 C 12.632812 -1.234375 11.898438 -0.710938 11.015625 -0.359375 C 10.128906 -0.00390625 9.132812 0.171875 8.03125 0.171875 C 6.613281 0.171875 5.363281 -0.109375 4.28125 -0.671875 C 3.207031 -1.234375 2.378906 -2.015625 1.796875 -3.015625 C 1.210938 -4.023438 0.921875 -5.164062 0.921875 -6.4375 C 0.921875 -7.6875 1.203125 -8.8125 1.765625 -9.8125 C 2.335938 -10.820312 3.128906 -11.609375 4.140625 -12.171875 C 5.160156 -12.734375 6.304688 -13.015625 7.578125 -13.015625 C 8.828125 -13.015625 9.945312 -12.738281 10.9375 -12.1875 C 11.925781 -11.632812 12.695312 -10.851562 13.25 -9.84375 C 13.800781 -8.84375 14.078125 -7.679688 14.078125 -6.359375 Z M 7.578125 -10.609375 C 6.609375 -10.609375 5.789062 -10.320312 5.125 -9.75 C 4.457031 -9.175781 4.050781 -8.414062 3.90625 -7.46875 L 11.203125 -7.46875 C 11.078125 -8.40625 10.6875 -9.160156 10.03125 -9.734375 C 9.375 -10.316406 8.554688 -10.609375 7.578125 -10.609375 Z M 7.578125 -10.609375 "/></g></g></g><g fill="#000000" fill-opacity="1"><g transform="translate(34.660908, 31.061812)"><g><path d="M 4.84375 -11 C 5.707031 -12.34375 7.234375 -13.015625 9.421875 -13.015625 L 9.421875 -10.15625 C 9.171875 -10.195312 8.941406 -10.21875 8.734375 -10.21875 C 7.554688 -10.21875 6.632812 -9.875 5.96875 -9.1875 C 5.3125 -8.507812 4.984375 -7.53125 4.984375 -6.25 L 4.984375 0 L 1.984375 0 L 1.984375 -12.875 L 4.84375 -12.875 Z M 4.84375 -11 "/></g></g></g><g fill="#000000" fill-opacity="1"><g transform="translate(44.784136, 31.061812)"><g><path d="M 7.765625 0.171875 C 6.460938 0.171875 5.285156 -0.109375 4.234375 -0.671875 C 3.191406 -1.234375 2.378906 -2.015625 1.796875 -3.015625 C 1.210938 -4.023438 0.921875 -5.164062 0.921875 -6.4375 C 0.921875 -7.707031 1.210938 -8.835938 1.796875 -9.828125 C 2.378906 -10.828125 3.191406 -11.609375 4.234375 -12.171875 C 5.285156 -12.734375 6.460938 -13.015625 7.765625 -13.015625 C 9.078125 -13.015625 10.253906 -12.734375 11.296875 -12.171875 C 12.347656 -11.609375 13.164062 -10.828125 13.75 -9.828125 C 14.34375 -8.835938 14.640625 -7.707031 14.640625 -6.4375 C 14.640625 -5.164062 14.34375 -4.023438 13.75 -3.015625 C 13.164062 -2.015625 12.347656 -1.234375 11.296875 -0.671875 C 10.253906 -0.109375 9.078125 0.171875 7.765625 0.171875 Z M 7.765625 -2.40625 C 8.867188 -2.40625 9.78125 -2.773438 10.5 -3.515625 C 11.226562 -4.253906 11.59375 -5.226562 11.59375 -6.4375 C 11.59375 -7.644531 11.226562 -8.617188 10.5 -9.359375 C 9.78125 -10.097656 8.867188 -10.46875 7.765625 -10.46875 C 6.648438 -10.46875 5.734375 -10.097656 5.015625 -9.359375 C 4.304688 -8.617188 3.953125 -7.644531 3.953125 -6.4375 C 3.953125 -5.226562 4.304688 -4.253906 5.015625 -3.515625 C 5.734375 -2.773438 6.648438 -2.40625 7.765625 -2.40625 Z M 7.765625 -2.40625 "/></g></g></g><g fill="#000000" fill-opacity="1"><g transform="translate(60.330524, 31.061812)"><g/></g></g><g fill="#000000" fill-opacity="1"><g transform="translate(66.982936, 31.061812)"><g><path d="M 7.5 0.234375 C 6.195312 0.234375 4.9375 0.0507812 3.71875 -0.3125 C 2.507812 -0.6875 1.550781 -1.175781 0.84375 -1.78125 L 1.921875 -4.21875 C 2.617188 -3.675781 3.46875 -3.226562 4.46875 -2.875 C 5.476562 -2.53125 6.488281 -2.359375 7.5 -2.359375 C 8.75 -2.359375 9.679688 -2.554688 10.296875 -2.953125 C 10.921875 -3.359375 11.234375 -3.894531 11.234375 -4.5625 C 11.234375 -5.039062 11.0625 -5.4375 10.71875 -5.75 C 10.375 -6.0625 9.9375 -6.304688 9.40625 -6.484375 C 8.875 -6.660156 8.148438 -6.863281 7.234375 -7.09375 C 5.941406 -7.394531 4.898438 -7.695312 4.109375 -8 C 3.316406 -8.3125 2.632812 -8.789062 2.0625 -9.4375 C 1.488281 -10.09375 1.203125 -10.972656 1.203125 -12.078125 C 1.203125 -13.015625 1.453125 -13.863281 1.953125 -14.625 C 2.460938 -15.382812 3.226562 -15.988281 4.25 -16.4375 C 5.269531 -16.894531 6.519531 -17.125 8 -17.125 C 9.03125 -17.125 10.039062 -16.992188 11.03125 -16.734375 C 12.03125 -16.472656 12.894531 -16.101562 13.625 -15.625 L 12.640625 -13.1875 C 11.898438 -13.625 11.125 -13.953125 10.3125 -14.171875 C 9.507812 -14.398438 8.734375 -14.515625 7.984375 -14.515625 C 6.742188 -14.515625 5.820312 -14.304688 5.21875 -13.890625 C 4.613281 -13.472656 4.3125 -12.914062 4.3125 -12.21875 C 4.3125 -11.738281 4.484375 -11.34375 4.828125 -11.03125 C 5.179688 -10.726562 5.617188 -10.488281 6.140625 -10.3125 C 6.671875 -10.132812 7.394531 -9.9375 8.3125 -9.71875 C 9.570312 -9.425781 10.601562 -9.125 11.40625 -8.8125 C 12.207031 -8.5 12.894531 -8.019531 13.46875 -7.375 C 14.039062 -6.726562 14.328125 -5.863281 14.328125 -4.78125 C 14.328125 -3.84375 14.070312 -2.992188 13.5625 -2.234375 C 13.050781 -1.484375 12.28125 -0.882812 11.25 -0.4375 C 10.226562 0.0078125 8.976562 0.234375 7.5 0.234375 Z M 7.5 0.234375 "/></g></g></g><g fill="#000000" fill-opacity="1"><g transform="translate(82.143684, 31.061812)"><g><path d="M 14.078125 -6.359375 C 14.078125 -6.148438 14.0625 -5.851562 14.03125 -5.46875 L 3.9375 -5.46875 C 4.101562 -4.519531 4.5625 -3.769531 5.3125 -3.21875 C 6.0625 -2.664062 6.988281 -2.390625 8.09375 -2.390625 C 9.507812 -2.390625 10.675781 -2.851562 11.59375 -3.78125 L 13.21875 -1.921875 C 12.632812 -1.234375 11.898438 -0.710938 11.015625 -0.359375 C 10.128906 -0.00390625 9.132812 0.171875 8.03125 0.171875 C 6.613281 0.171875 5.363281 -0.109375 4.28125 -0.671875 C 3.207031 -1.234375 2.378906 -2.015625 1.796875 -3.015625 C 1.210938 -4.023438 0.921875 -5.164062 0.921875 -6.4375 C 0.921875 -7.6875 1.203125 -8.8125 1.765625 -9.8125 C 2.335938 -10.820312 3.128906 -11.609375 4.140625 -12.171875 C 5.160156 -12.734375 6.304688 -13.015625 7.578125 -13.015625 C 8.828125 -13.015625 9.945312 -12.738281 10.9375 -12.1875 C 11.925781 -11.632812 12.695312 -10.851562 13.25 -9.84375 C 13.800781 -8.84375 14.078125 -7.679688 14.078125 -6.359375 Z M 7.578125 -10.609375 C 6.609375 -10.609375 5.789062 -10.320312 5.125 -9.75 C 4.457031 -9.175781 4.050781 -8.414062 3.90625 -7.46875 L 11.203125 -7.46875 C 11.078125 -8.40625 10.6875 -9.160156 10.03125 -9.734375 C 9.375 -10.316406 8.554688 -10.609375 7.578125 -10.609375 Z M 7.578125 -10.609375 "/></g></g></g><g fill="#000000" fill-opacity="1"><g transform="translate(97.135707, 31.061812)"><g><path d="M 4.84375 -11 C 5.707031 -12.34375 7.234375 -13.015625 9.421875 -13.015625 L 9.421875 -10.15625 C 9.171875 -10.195312 8.941406 -10.21875 8.734375 -10.21875 C 7.554688 -10.21875 6.632812 -9.875 5.96875 -9.1875 C 5.3125 -8.507812 4.984375 -7.53125 4.984375 -6.25 L 4.984375 0 L 1.984375 0 L 1.984375 -12.875 L 4.84375 -12.875 Z M 4.84375 -11 "/></g></g></g><g fill="#000000" fill-opacity="1"><g transform="translate(107.258935, 31.061812)"><g><path d="M 14.03125 -12.875 L 8.515625 0 L 5.40625 0 L -0.125 -12.875 L 3.015625 -12.875 L 7.015625 -3.328125 L 11.140625 -12.875 Z M 14.03125 -12.875 "/></g></g></g><g fill="#000000" fill-opacity="1"><g transform="translate(121.190431, 31.061812)"><g><path d="M 14.078125 -6.359375 C 14.078125 -6.148438 14.0625 -5.851562 14.03125 -5.46875 L 3.9375 -5.46875 C 4.101562 -4.519531 4.5625 -3.769531 5.3125 -3.21875 C 6.0625 -2.664062 6.988281 -2.390625 8.09375 -2.390625 C 9.507812 -2.390625 10.675781 -2.851562 11.59375 -3.78125 L 13.21875 -1.921875 C 12.632812 -1.234375 11.898438 -0.710938 11.015625 -0.359375 C 10.128906 -0.00390625 9.132812 0.171875 8.03125 0.171875 C 6.613281 0.171875 5.363281 -0.109375 4.28125 -0.671875 C 3.207031 -1.234375 2.378906 -2.015625 1.796875 -3.015625 C 1.210938 -4.023438 0.921875 -5.164062 0.921875 -6.4375 C 0.921875 -7.6875 1.203125 -8.8125 1.765625 -9.8125 C 2.335938 -10.820312 3.128906 -11.609375 4.140625 -12.171875 C 5.160156 -12.734375 6.304688 -13.015625 7.578125 -13.015625 C 8.828125 -13.015625 9.945312 -12.738281 10.9375 -12.1875 C 11.925781 -11.632812 12.695312 -10.851562 13.25 -9.84375 C 13.800781 -8.84375 14.078125 -7.679688 14.078125 -6.359375 Z M 7.578125 -10.609375 C 6.609375 -10.609375 5.789062 -10.320312 5.125 -9.75 C 4.457031 -9.175781 4.050781 -8.414062 3.90625 -7.46875 L 11.203125 -7.46875 C 11.078125 -8.40625 10.6875 -9.160156 10.03125 -9.734375 C 9.375 -10.316406 8.554688 -10.609375 7.578125 -10.609375 Z M 7.578125 -10.609375 "/></g></g></g><g fill="#000000" fill-opacity="1"><g transform="translate(136.182453, 31.061812)"><g><path d="M 4.84375 -11 C 5.707031 -12.34375 7.234375 -13.015625 9.421875 -13.015625 L 9.421875 -10.15625 C 9.171875 -10.195312 8.941406 -10.21875 8.734375 -10.21875 C 7.554688 -10.21875 6.632812 -9.875 5.96875 -9.1875 C 5.3125 -8.507812 4.984375 -7.53125 4.984375 -6.25 L 4.984375 0 L 1.984375 0 L 1.984375 -12.875 L 4.84375 -12.875 Z M 4.84375 -11 "/></g></g></g></svg>