<svg xmlns="http://www.w3.org/2000/svg" xmlns:xlink="http://www.w3.org/1999/xlink" width="200" zoomAndPan="magnify" viewBox="0 0 150 44.999999" height="60" preserveAspectRatio="xMidYMid meet" version="1.0"><defs><g/><clipPath id="08c3a4c480"><path d="M 0 3.25 L 33.75 3.25 L 33.75 40 L 0 40 Z M 0 3.25 " clip-rule="nonzero"/></clipPath></defs><g fill="#000000" fill-opacity="1"><g transform="translate(38.194386, 28.15003)"><g><path d="M 11.75 -2.03125 L 11.75 0 L 0.75 0 L 0.75 -1.609375 L 8.34375 -10.875 L 0.890625 -10.875 L 0.890625 -12.890625 L 11.515625 -12.890625 L 11.515625 -11.296875 L 3.921875 -2.03125 Z M 11.75 -2.03125 "/></g></g></g><g fill="#000000" fill-opacity="1"><g transform="translate(50.405886, 28.15003)"><g><path d="M 10.765625 -4.859375 C 10.765625 -4.703125 10.75 -4.476562 10.71875 -4.1875 L 3 -4.1875 C 3.132812 -3.457031 3.488281 -2.878906 4.0625 -2.453125 C 4.632812 -2.035156 5.34375 -1.828125 6.1875 -1.828125 C 7.269531 -1.828125 8.160156 -2.179688 8.859375 -2.890625 L 10.09375 -1.46875 C 9.65625 -0.945312 9.097656 -0.550781 8.421875 -0.28125 C 7.742188 -0.0078125 6.984375 0.125 6.140625 0.125 C 5.054688 0.125 4.101562 -0.0859375 3.28125 -0.515625 C 2.457031 -0.941406 1.820312 -1.539062 1.375 -2.3125 C 0.925781 -3.082031 0.703125 -3.953125 0.703125 -4.921875 C 0.703125 -5.878906 0.921875 -6.738281 1.359375 -7.5 C 1.796875 -8.269531 2.398438 -8.867188 3.171875 -9.296875 C 3.941406 -9.734375 4.8125 -9.953125 5.78125 -9.953125 C 6.738281 -9.953125 7.59375 -9.738281 8.34375 -9.3125 C 9.101562 -8.882812 9.695312 -8.285156 10.125 -7.515625 C 10.550781 -6.753906 10.765625 -5.867188 10.765625 -4.859375 Z M 5.78125 -8.109375 C 5.039062 -8.109375 4.414062 -7.890625 3.90625 -7.453125 C 3.40625 -7.015625 3.097656 -6.429688 2.984375 -5.703125 L 8.5625 -5.703125 C 8.46875 -6.421875 8.164062 -7 7.65625 -7.4375 C 7.15625 -7.882812 6.53125 -8.109375 5.78125 -8.109375 Z M 5.78125 -8.109375 "/></g></g></g><g fill="#000000" fill-opacity="1"><g transform="translate(61.862223, 28.15003)"><g><path d="M 3.703125 -8.40625 C 4.367188 -9.4375 5.535156 -9.953125 7.203125 -9.953125 L 7.203125 -7.75 C 7.003906 -7.789062 6.828125 -7.8125 6.671875 -7.8125 C 5.773438 -7.8125 5.070312 -7.550781 4.5625 -7.03125 C 4.0625 -6.507812 3.8125 -5.753906 3.8125 -4.765625 L 3.8125 0 L 1.515625 0 L 1.515625 -9.84375 L 3.703125 -9.84375 Z M 3.703125 -8.40625 "/></g></g></g><g fill="#000000" fill-opacity="1"><g transform="translate(69.598012, 28.15003)"><g><path d="M 5.9375 0.125 C 4.9375 0.125 4.035156 -0.0859375 3.234375 -0.515625 C 2.441406 -0.941406 1.820312 -1.539062 1.375 -2.3125 C 0.925781 -3.082031 0.703125 -3.953125 0.703125 -4.921875 C 0.703125 -5.890625 0.925781 -6.753906 1.375 -7.515625 C 1.820312 -8.273438 2.441406 -8.867188 3.234375 -9.296875 C 4.035156 -9.734375 4.9375 -9.953125 5.9375 -9.953125 C 6.9375 -9.953125 7.835938 -9.734375 8.640625 -9.296875 C 9.441406 -8.867188 10.066406 -8.273438 10.515625 -7.515625 C 10.960938 -6.753906 11.1875 -5.890625 11.1875 -4.921875 C 11.1875 -3.953125 10.960938 -3.082031 10.515625 -2.3125 C 10.066406 -1.539062 9.441406 -0.941406 8.640625 -0.515625 C 7.835938 -0.0859375 6.9375 0.125 5.9375 0.125 Z M 5.9375 -1.84375 C 6.78125 -1.84375 7.476562 -2.125 8.03125 -2.6875 C 8.582031 -3.25 8.859375 -3.992188 8.859375 -4.921875 C 8.859375 -5.835938 8.582031 -6.578125 8.03125 -7.140625 C 7.476562 -7.710938 6.78125 -8 5.9375 -8 C 5.082031 -8 4.378906 -7.710938 3.828125 -7.140625 C 3.285156 -6.578125 3.015625 -5.835938 3.015625 -4.921875 C 3.015625 -3.992188 3.285156 -3.25 3.828125 -2.6875 C 4.378906 -2.125 5.082031 -1.84375 5.9375 -1.84375 Z M 5.9375 -1.84375 "/></g></g></g><g fill="#000000" fill-opacity="1"><g transform="translate(81.477974, 28.15003)"><g/></g></g><g fill="#000000" fill-opacity="1"><g transform="translate(86.561496, 28.15003)"><g><path d="M 5.734375 0.1875 C 4.734375 0.1875 3.769531 0.046875 2.84375 -0.234375 C 1.914062 -0.515625 1.179688 -0.890625 0.640625 -1.359375 L 1.46875 -3.21875 C 2 -2.800781 2.644531 -2.460938 3.40625 -2.203125 C 4.175781 -1.941406 4.953125 -1.8125 5.734375 -1.8125 C 6.691406 -1.8125 7.40625 -1.960938 7.875 -2.265625 C 8.34375 -2.566406 8.578125 -2.972656 8.578125 -3.484375 C 8.578125 -3.847656 8.445312 -4.148438 8.1875 -4.390625 C 7.925781 -4.628906 7.59375 -4.816406 7.1875 -4.953125 C 6.78125 -5.085938 6.226562 -5.242188 5.53125 -5.421875 C 4.539062 -5.648438 3.742188 -5.878906 3.140625 -6.109375 C 2.535156 -6.347656 2.015625 -6.710938 1.578125 -7.203125 C 1.140625 -7.703125 0.921875 -8.378906 0.921875 -9.234375 C 0.921875 -9.941406 1.113281 -10.585938 1.5 -11.171875 C 1.882812 -11.753906 2.46875 -12.21875 3.25 -12.5625 C 4.03125 -12.90625 4.984375 -13.078125 6.109375 -13.078125 C 6.898438 -13.078125 7.675781 -12.976562 8.4375 -12.78125 C 9.195312 -12.582031 9.851562 -12.300781 10.40625 -11.9375 L 9.65625 -10.078125 C 9.09375 -10.410156 8.503906 -10.660156 7.890625 -10.828125 C 7.273438 -11.003906 6.675781 -11.09375 6.09375 -11.09375 C 5.144531 -11.09375 4.441406 -10.929688 3.984375 -10.609375 C 3.523438 -10.285156 3.296875 -9.863281 3.296875 -9.34375 C 3.296875 -8.96875 3.425781 -8.664062 3.6875 -8.4375 C 3.957031 -8.207031 4.296875 -8.023438 4.703125 -7.890625 C 5.109375 -7.753906 5.660156 -7.597656 6.359375 -7.421875 C 7.316406 -7.203125 8.101562 -6.972656 8.71875 -6.734375 C 9.332031 -6.492188 9.851562 -6.128906 10.28125 -5.640625 C 10.71875 -5.148438 10.9375 -4.484375 10.9375 -3.640625 C 10.9375 -2.929688 10.742188 -2.285156 10.359375 -1.703125 C 9.972656 -1.128906 9.382812 -0.671875 8.59375 -0.328125 C 7.8125 0.015625 6.859375 0.1875 5.734375 0.1875 Z M 5.734375 0.1875 "/></g></g></g><g fill="#000000" fill-opacity="1"><g transform="translate(98.146767, 28.15003)"><g><path d="M 10.765625 -4.859375 C 10.765625 -4.703125 10.75 -4.476562 10.71875 -4.1875 L 3 -4.1875 C 3.132812 -3.457031 3.488281 -2.878906 4.0625 -2.453125 C 4.632812 -2.035156 5.34375 -1.828125 6.1875 -1.828125 C 7.269531 -1.828125 8.160156 -2.179688 8.859375 -2.890625 L 10.09375 -1.46875 C 9.65625 -0.945312 9.097656 -0.550781 8.421875 -0.28125 C 7.742188 -0.0078125 6.984375 0.125 6.140625 0.125 C 5.054688 0.125 4.101562 -0.0859375 3.28125 -0.515625 C 2.457031 -0.941406 1.820312 -1.539062 1.375 -2.3125 C 0.925781 -3.082031 0.703125 -3.953125 0.703125 -4.921875 C 0.703125 -5.878906 0.921875 -6.738281 1.359375 -7.5 C 1.796875 -8.269531 2.398438 -8.867188 3.171875 -9.296875 C 3.941406 -9.734375 4.8125 -9.953125 5.78125 -9.953125 C 6.738281 -9.953125 7.59375 -9.738281 8.34375 -9.3125 C 9.101562 -8.882812 9.695312 -8.285156 10.125 -7.515625 C 10.550781 -6.753906 10.765625 -5.867188 10.765625 -4.859375 Z M 5.78125 -8.109375 C 5.039062 -8.109375 4.414062 -7.890625 3.90625 -7.453125 C 3.40625 -7.015625 3.097656 -6.429688 2.984375 -5.703125 L 8.5625 -5.703125 C 8.46875 -6.421875 8.164062 -7 7.65625 -7.4375 C 7.15625 -7.882812 6.53125 -8.109375 5.78125 -8.109375 Z M 5.78125 -8.109375 "/></g></g></g><g fill="#000000" fill-opacity="1"><g transform="translate(109.603104, 28.15003)"><g><path d="M 3.703125 -8.40625 C 4.367188 -9.4375 5.535156 -9.953125 7.203125 -9.953125 L 7.203125 -7.75 C 7.003906 -7.789062 6.828125 -7.8125 6.671875 -7.8125 C 5.773438 -7.8125 5.070312 -7.550781 4.5625 -7.03125 C 4.0625 -6.507812 3.8125 -5.753906 3.8125 -4.765625 L 3.8125 0 L 1.515625 0 L 1.515625 -9.84375 L 3.703125 -9.84375 Z M 3.703125 -8.40625 "/></g></g></g><g fill="#000000" fill-opacity="1"><g transform="translate(117.338893, 28.15003)"><g><path d="M 10.71875 -9.84375 L 6.5 0 L 4.125 0 L -0.09375 -9.84375 L 2.296875 -9.84375 L 5.359375 -2.546875 L 8.515625 -9.84375 Z M 10.71875 -9.84375 "/></g></g></g><g fill="#000000" fill-opacity="1"><g transform="translate(127.984815, 28.15003)"><g><path d="M 10.765625 -4.859375 C 10.765625 -4.703125 10.75 -4.476562 10.71875 -4.1875 L 3 -4.1875 C 3.132812 -3.457031 3.488281 -2.878906 4.0625 -2.453125 C 4.632812 -2.035156 5.34375 -1.828125 6.1875 -1.828125 C 7.269531 -1.828125 8.160156 -2.179688 8.859375 -2.890625 L 10.09375 -1.46875 C 9.65625 -0.945312 9.097656 -0.550781 8.421875 -0.28125 C 7.742188 -0.0078125 6.984375 0.125 6.140625 0.125 C 5.054688 0.125 4.101562 -0.0859375 3.28125 -0.515625 C 2.457031 -0.941406 1.820312 -1.539062 1.375 -2.3125 C 0.925781 -3.082031 0.703125 -3.953125 0.703125 -4.921875 C 0.703125 -5.878906 0.921875 -6.738281 1.359375 -7.5 C 1.796875 -8.269531 2.398438 -8.867188 3.171875 -9.296875 C 3.941406 -9.734375 4.8125 -9.953125 5.78125 -9.953125 C 6.738281 -9.953125 7.59375 -9.738281 8.34375 -9.3125 C 9.101562 -8.882812 9.695312 -8.285156 10.125 -7.515625 C 10.550781 -6.753906 10.765625 -5.867188 10.765625 -4.859375 Z M 5.78125 -8.109375 C 5.039062 -8.109375 4.414062 -7.890625 3.90625 -7.453125 C 3.40625 -7.015625 3.097656 -6.429688 2.984375 -5.703125 L 8.5625 -5.703125 C 8.46875 -6.421875 8.164062 -7 7.65625 -7.4375 C 7.15625 -7.882812 6.53125 -8.109375 5.78125 -8.109375 Z M 5.78125 -8.109375 "/></g></g></g><g fill="#000000" fill-opacity="1"><g transform="translate(139.441153, 28.15003)"><g><path d="M 3.703125 -8.40625 C 4.367188 -9.4375 5.535156 -9.953125 7.203125 -9.953125 L 7.203125 -7.75 C 7.003906 -7.789062 6.828125 -7.8125 6.671875 -7.8125 C 5.773438 -7.8125 5.070312 -7.550781 4.5625 -7.03125 C 4.0625 -6.507812 3.8125 -5.753906 3.8125 -4.765625 L 3.8125 0 L 1.515625 0 L 1.515625 -9.84375 L 3.703125 -9.84375 Z M 3.703125 -8.40625 "/></g></g></g><g clip-path="url(#08c3a4c480)"><path fill="#000000" d="M 24.90625 10.597656 L 24.601562 10.371094 L 24.28125 10.160156 C 24.230469 10.125 24.175781 10.085938 24.121094 10.054688 L 23.957031 9.957031 C 23.847656 9.890625 23.742188 9.824219 23.628906 9.761719 C 23.402344 9.644531 23.183594 9.515625 22.949219 9.414062 C 22.832031 9.359375 22.71875 9.300781 22.601562 9.253906 L 22.246094 9.109375 C 21.296875 8.722656 20.289062 8.480469 19.265625 8.367188 C 18.242188 8.246094 17.203125 8.285156 16.183594 8.441406 C 16.054688 8.457031 15.929688 8.488281 15.804688 8.511719 C 15.675781 8.539062 15.550781 8.558594 15.425781 8.589844 C 15.175781 8.65625 14.921875 8.710938 14.679688 8.792969 C 14.554688 8.828125 14.429688 8.867188 14.308594 8.90625 C 14.222656 8.9375 14.132812 8.953125 14.042969 8.949219 C 8.289062 8.8125 3.476562 14.753906 5.460938 21.734375 C 5.488281 21.84375 5.640625 21.855469 5.691406 21.753906 C 6.523438 20.054688 8.625 19.484375 10.796875 18.316406 C 13.101562 17.078125 15.480469 15.164062 16.507812 10.515625 C 16.511719 10.496094 16.515625 10.476562 16.515625 10.460938 C 16.550781 10.261719 16.339844 10.113281 16.160156 10.207031 C 15.972656 10.304688 15.785156 10.40625 15.597656 10.511719 C 15.128906 10.773438 14.667969 11.050781 14.210938 11.34375 C 13.984375 11.488281 13.757812 11.632812 13.53125 11.785156 C 13.308594 11.933594 13.085938 12.085938 12.867188 12.242188 C 12.425781 12.554688 11.988281 12.875 11.5625 13.210938 C 11.140625 13.542969 10.722656 13.886719 10.320312 14.246094 C 9.914062 14.605469 9.523438 14.976562 9.15625 15.371094 C 8.972656 15.566406 8.792969 15.769531 8.625 15.980469 C 8.53125 16.097656 8.4375 16.214844 8.351562 16.335938 C 8.339844 16.351562 8.320312 16.335938 8.328125 16.324219 C 8.40625 16.195312 8.488281 16.066406 8.574219 15.941406 C 8.726562 15.71875 8.890625 15.503906 9.058594 15.289062 C 9.398438 14.867188 9.761719 14.460938 10.140625 14.070312 C 10.519531 13.675781 10.910156 13.296875 11.316406 12.929688 C 11.71875 12.558594 12.128906 12.203125 12.554688 11.855469 C 12.765625 11.679688 12.976562 11.507812 13.191406 11.335938 C 13.40625 11.167969 13.625 11 13.84375 10.835938 C 14.144531 10.613281 14.445312 10.394531 14.753906 10.183594 L 14.785156 10.167969 C 14.890625 10.128906 15 10.097656 15.105469 10.058594 C 15.320312 9.980469 15.539062 9.925781 15.757812 9.863281 C 15.867188 9.832031 15.980469 9.808594 16.089844 9.785156 C 16.203125 9.757812 16.3125 9.730469 16.425781 9.710938 C 17.320312 9.546875 18.238281 9.484375 19.152344 9.5625 C 20.066406 9.636719 20.972656 9.828125 21.835938 10.148438 L 22.160156 10.269531 C 22.265625 10.3125 22.371094 10.359375 22.476562 10.40625 C 22.691406 10.492188 22.894531 10.601562 23.101562 10.703125 C 23.203125 10.753906 23.300781 10.8125 23.402344 10.867188 L 23.554688 10.953125 C 23.605469 10.980469 23.652344 11.011719 23.699219 11.042969 L 23.992188 11.226562 L 24.277344 11.421875 C 25.777344 12.484375 26.980469 13.960938 27.703125 15.648438 C 28.425781 17.332031 28.671875 19.21875 28.386719 21.03125 L 28.332031 21.371094 L 28.257812 21.710938 L 28.21875 21.878906 L 28.175781 22.042969 L 28.082031 22.378906 L 27.972656 22.707031 C 27.957031 22.761719 27.9375 22.816406 27.917969 22.871094 L 27.855469 23.03125 L 27.730469 23.355469 L 27.585938 23.671875 L 27.515625 23.828125 L 27.433594 23.984375 L 27.277344 24.292969 L 27.101562 24.59375 C 27.070312 24.640625 27.042969 24.691406 27.011719 24.742188 L 26.917969 24.886719 C 26.671875 25.28125 26.382812 25.648438 26.082031 26.003906 C 25.441406 26.753906 24.679688 27.40625 23.839844 27.945312 C 24.023438 27.996094 24.207031 28.054688 24.386719 28.109375 C 25.15625 27.613281 25.867188 27.023438 26.484375 26.34375 C 26.808594 25.980469 27.125 25.601562 27.398438 25.195312 L 27.503906 25.042969 C 27.535156 24.992188 27.566406 24.941406 27.601562 24.886719 L 27.796875 24.574219 L 27.972656 24.253906 L 28.0625 24.09375 L 28.144531 23.929688 L 28.304688 23.597656 L 28.449219 23.261719 L 28.523438 23.089844 C 28.542969 23.035156 28.566406 22.976562 28.585938 22.917969 L 28.710938 22.574219 L 28.875 22.046875 L 28.921875 21.867188 L 29.011719 21.511719 L 29.082031 21.152344 C 29.445312 19.21875 29.25 17.183594 28.519531 15.332031 C 27.789062 13.480469 26.53125 11.820312 24.90625 10.597656 Z M 33.664062 30.546875 C 28.101562 40.164062 16.351562 41.496094 10.300781 35.289062 C 10.203125 35.191406 10.089844 35.109375 9.964844 35.054688 C 9.789062 34.96875 9.613281 34.875 9.441406 34.789062 C 9.378906 34.757812 9.316406 34.726562 9.253906 34.695312 C 8.96875 34.546875 8.691406 34.378906 8.414062 34.21875 C 8.246094 34.121094 8.082031 34.007812 7.917969 33.90625 C 7.753906 33.796875 7.585938 33.695312 7.433594 33.578125 C 7.363281 33.53125 7.292969 33.480469 7.226562 33.429688 C 6.03125 32.5625 4.941406 31.554688 4.023438 30.414062 C 3.046875 29.214844 2.226562 27.886719 1.628906 26.476562 L 1.40625 25.945312 C 1.332031 25.765625 1.273438 25.585938 1.207031 25.40625 C 1.070312 25.046875 0.972656 24.675781 0.859375 24.3125 C 0.804688 24.128906 0.765625 23.941406 0.71875 23.753906 L 0.648438 23.476562 C 0.625 23.382812 0.613281 23.289062 0.59375 23.195312 L 0.484375 22.632812 L 0.402344 22.066406 C 0 19.039062 0.472656 15.921875 1.730469 13.15625 C 2.988281 10.394531 5.023438 7.988281 7.546875 6.289062 L 8.023438 5.976562 L 8.511719 5.6875 L 8.757812 5.542969 L 9.011719 5.410156 L 9.515625 5.144531 L 10.03125 4.90625 C 10.117188 4.867188 10.203125 4.824219 10.292969 4.789062 L 10.554688 4.679688 L 11.085938 4.46875 L 11.621094 4.28125 L 11.890625 4.191406 L 12.164062 4.109375 L 12.710938 3.953125 L 13.265625 3.820312 C 13.359375 3.800781 13.449219 3.777344 13.542969 3.757812 L 13.824219 3.707031 C 14.566406 3.554688 15.324219 3.476562 16.082031 3.429688 C 19.113281 3.257812 22.164062 3.949219 24.8125 5.347656 C 27.457031 6.75 29.707031 8.859375 31.195312 11.402344 C 31.292969 11.558594 31.378906 11.722656 31.464844 11.882812 C 31.550781 12.046875 31.644531 12.203125 31.726562 12.371094 C 31.882812 12.703125 32.050781 13.027344 32.183594 13.371094 C 32.324219 13.707031 32.460938 14.050781 32.574219 14.394531 C 32.695312 14.742188 32.800781 15.09375 32.894531 15.445312 C 33.269531 16.859375 33.445312 18.316406 33.417969 19.769531 C 33.402344 18.316406 33.179688 16.871094 32.765625 15.480469 C 32.664062 15.132812 32.546875 14.789062 32.417969 14.449219 C 32.292969 14.109375 32.148438 13.777344 31.996094 13.449219 C 31.855469 13.117188 31.679688 12.796875 31.515625 12.476562 C 31.433594 12.3125 31.335938 12.160156 31.246094 12.003906 C 31.15625 11.847656 31.066406 11.6875 30.964844 11.539062 C 29.425781 9.082031 27.164062 7.09375 24.5625 5.816406 C 21.960938 4.535156 19.011719 3.964844 16.136719 4.214844 C 15.417969 4.285156 14.703125 4.375 14.003906 4.542969 L 13.738281 4.597656 C 13.652344 4.617188 13.566406 4.644531 13.480469 4.667969 L 12.957031 4.808594 L 12.445312 4.972656 L 12.191406 5.054688 L 11.9375 5.148438 L 11.433594 5.339844 L 10.941406 5.554688 L 10.695312 5.664062 C 10.617188 5.699219 10.535156 5.742188 10.457031 5.78125 L 9.976562 6.019531 L 9.511719 6.28125 L 9.277344 6.414062 L 9.050781 6.554688 L 8.601562 6.84375 L 8.164062 7.148438 C 5.855469 8.808594 4.039062 11.097656 2.960938 13.675781 C 1.878906 16.253906 1.542969 19.113281 1.992188 21.839844 L 2.082031 22.351562 L 2.195312 22.855469 C 2.214844 22.941406 2.230469 23.027344 2.253906 23.109375 L 2.324219 23.359375 C 2.371094 23.523438 2.414062 23.691406 2.464844 23.855469 C 2.578125 24.183594 2.675781 24.515625 2.808594 24.832031 C 2.875 24.992188 2.933594 25.15625 3.003906 25.3125 L 3.21875 25.785156 C 3.796875 27.039062 4.566406 28.199219 5.464844 29.242188 C 6.074219 29.953125 6.761719 30.597656 7.496094 31.179688 C 7.84375 31.453125 8.203125 31.710938 8.574219 31.957031 C 8.714844 32.058594 8.863281 32.140625 9.011719 32.230469 C 9.035156 32.246094 9.058594 32.261719 9.085938 32.277344 C 9.207031 32.351562 9.328125 32.429688 9.457031 32.496094 C 9.761719 32.65625 10.058594 32.832031 10.375 32.972656 C 10.53125 33.042969 10.6875 33.121094 10.84375 33.191406 L 10.894531 33.210938 C 11.460938 33.304688 12.027344 33.386719 12.59375 33.460938 C 13.015625 33.515625 13.433594 33.566406 13.851562 33.609375 C 14.269531 33.652344 14.691406 33.691406 15.109375 33.726562 C 15.949219 33.796875 16.792969 33.84375 17.632812 33.871094 C 18.472656 33.898438 19.316406 33.902344 20.15625 33.878906 C 20.996094 33.855469 21.835938 33.800781 22.671875 33.703125 C 23.085938 33.652344 23.503906 33.589844 23.914062 33.511719 C 24.144531 33.464844 24.371094 33.417969 24.597656 33.359375 C 24.625 33.351562 24.617188 33.3125 24.589844 33.320312 C 24.359375 33.359375 24.128906 33.390625 23.898438 33.417969 C 23.484375 33.464844 23.070312 33.496094 22.65625 33.511719 C 21.824219 33.550781 20.988281 33.539062 20.160156 33.5 C 19.328125 33.460938 18.5 33.394531 17.671875 33.304688 C 16.847656 33.214844 16.023438 33.105469 15.203125 32.976562 C 14.792969 32.910156 14.386719 32.84375 13.976562 32.769531 C 13.570312 32.695312 13.164062 32.613281 12.757812 32.53125 C 11.945312 32.363281 11.140625 32.175781 10.347656 31.964844 C 10.027344 31.878906 9.714844 31.792969 9.402344 31.699219 C 9.347656 31.683594 9.300781 31.660156 9.261719 31.625 C 9.09375 31.480469 9.089844 31.195312 9.296875 31.050781 C 9.308594 31.042969 9.320312 31.039062 9.332031 31.03125 C 9.34375 31.019531 9.359375 31.011719 9.371094 31.003906 C 10.546875 30.261719 11.671875 29.675781 12.742188 29.21875 C 12.78125 29.203125 12.816406 29.1875 12.855469 29.171875 C 17.40625 27.269531 21.039062 27.730469 24.136719 28.605469 C 24.21875 28.628906 24.304688 28.65625 24.386719 28.679688 C 24.585938 28.738281 24.785156 28.796875 24.980469 28.859375 C 28.222656 29.871094 30.882812 31.164062 33.4375 30.28125 C 33.601562 30.222656 33.75 30.398438 33.664062 30.546875 " fill-opacity="1" fill-rule="nonzero"/></g><path fill="#000000" d="M 10.410156 28.414062 C 10.40625 28.414062 10.320312 28.398438 10.179688 28.25 L 10.410156 28.414062 " fill-opacity="1" fill-rule="nonzero"/></svg>